# xmcd
#
# Track frame offsets: 
#        150
#        13857
#        29386
#        49909
#        63647
#        75066
#        84880
#        97677
#        114982
#        128049
#        152093
#        168357
#
# Disc length: 2486 seconds
#
# Revision: 0
# Processed by: cddbd v1.5.2PL0 Copyright (c) Steve Scherf et al.
# Submitted via: ExactAudioCopy v1.0b1
#
DISCID=8009b40c
DTITLE=Hendrik Röver - No temáis por mí
DYEAR=2010
DGENRE=Bluegrass
TTITLE0=No temáis por mí
TTITLE1=Adiós
TTITLE2=Casa abandonada
TTITLE3=Sol
TTITLE4=Cambio de aires
TTITLE5=La nueva paz
TTITLE6=Mi Mansión
TTITLE7=(El nombre de mi) Hermano
TTITLE8=Tornados
TTITLE9=Lo siento
TTITLE10=Ahora venís
TTITLE11=En resumen
EXTD=
EXTT0=
EXTT1=
EXTT2=
EXTT3=
EXTT4=
EXTT5=
EXTT6=
EXTT7=
EXTT8=
EXTT9=
EXTT10=
EXTT11=
PLAYORDER=
